<svg xmlns="http://www.w3.org/2000/svg" xmlns:svgjs="http://svgjs.com/svgjs" xmlns:xlink="http://www.w3.org/1999/xlink" width="288" height="288"><svg xmlns="http://www.w3.org/2000/svg" width="288" height="288" version="1.0" viewBox="0 0 225 225"><g fill="#ffdb6e" class="color000 svgShape" transform="matrix(.1 0 0 -.1 0 225)"><path d="M1072 2131 c-55 -14 -112 -59 -132 -104 -10 -23 -21 -77 -25 -119 -7-84 -13 -66 68 -226 33 -64 34 -97 5 -116 -13 -8 -72 -27 -131 -42 -60 -15
-118 -35 -130 -45 -21 -18 -10 -18 398 -18 408 0 419 0 398 18 -12 10 -70 30
-130 45 -59 15 -118 34 -130 42 -30 19 -29 52 4 116 80 160 75 142 67 229 -4
50 -15 96 -28 122 -37 74 -147 119 -234 98z" class="color000 svgShape"/><path d="M619 1801 c-23 -24 -29 -38 -29 -73 0 -31 -10 -63 -32 -104 -27 -50
-33 -71 -36 -146 -3 -60 -8 -88 -16 -88 -23 0 -56 -46 -56 -76 0 -16 9 -63 20
-104 26 -103 37 -110 160 -110 l98 0 7 28 c3 16 22 44 41 63 l35 34 314 0 314
0 35 -34 c19 -19 38 -47 41 -63 l7 -28 98 0 c123 0 134 7 160 110 27 102 26
131 -6 161 l-26 24 -584 3 -584 2 0 68 c0 49 6 80 24 118 l24 51 53 -4 c50 -4
56 -2 83 26 64 67 19 171 -75 171 -31 0 -47 -7 -70 -29z" class="color000 svgShape"/><path d="M816 1145 c-22 -20 -26 -33 -26 -77 0 -128 53 -885 63 -908 22 -45
47 -50 272 -50 225 0 250 5 272 50 10 23 63 780 63 908 0 44 -4 57 -26 77
l-27 25 -282 0 -282 0 -27 -25z" class="color000 svgShape"/></g></svg></svg>